<svg xmlns="http://www.w3.org/2000/svg" viewBox="0 0 192 192" width="192" height="192">
  <!-- Google Ads Logo -->
  <defs>
    <linearGradient id="grad1" x1="0%" y1="0%" x2="100%" y2="100%">
      <stop offset="0%" style="stop-color:#4285F4;stop-opacity:1" />
      <stop offset="100%" style="stop-color:#1967D2;stop-opacity:1" />
    </linearGradient>
  </defs>

  <!-- Background circle -->
  <circle cx="96" cy="96" r="88" fill="url(#grad1)"/>

  <!-- Shopping bag icon -->
  <g transform="translate(48, 48)">
    <!-- Bag body -->
    <path d="M 88 32 L 88 24 C 88 10.745 77.255 0 64 0 C 50.745 0 40 10.745 40 24 L 40 32 L 16 32 L 16 96 L 112 96 L 112 32 L 88 32 Z M 56 24 C 56 19.589 59.589 16 64 16 C 68.411 16 72 19.589 72 24 L 72 32 L 56 32 L 56 24 Z"
          fill="white"
          transform="scale(0.75) translate(16, 16)"/>
  </g>

  <!-- Google colors accent -->
  <circle cx="96" cy="56" r="6" fill="#FBBC04"/>
  <circle cx="136" cy="96" r="6" fill="#34A853"/>
  <circle cx="96" cy="136" r="6" fill="#EA4335"/>
</svg>
